<svg width="71" height="48" viewBox="0 0 71 48" fill="none" xmlns="http://www.w3.org/2000/svg">
<path d="M18.2084 31.875H28.5834C29.5006 31.875 30.3803 31.5458 31.0288 30.9597C31.6774 30.3737 32.0417 29.5788 32.0417 28.75C32.0417 27.9212 31.6774 27.1263 31.0288 26.5403C30.3803 25.9542 29.5006 25.625 28.5834 25.625H18.2084C17.2912 25.625 16.4116 25.9542 15.763 26.5403C15.1144 27.1263 14.7501 27.9212 14.7501 28.75C14.7501 29.5788 15.1144 30.3737 15.763 30.9597C16.4116 31.5458 17.2912 31.875 18.2084 31.875ZM59.7084 0.625H11.2917C8.54013 0.625 5.90121 1.61272 3.95552 3.37087C2.00983 5.12903 0.916748 7.5136 0.916748 10V38.125C0.916748 40.6114 2.00983 42.996 3.95552 44.7541C5.90121 46.5123 8.54013 47.5 11.2917 47.5H59.7084C62.46 47.5 65.099 46.5123 67.0447 44.7541C68.9903 42.996 70.0834 40.6114 70.0834 38.125V10C70.0834 7.5136 68.9903 5.12903 67.0447 3.37087C65.099 1.61272 62.46 0.625 59.7084 0.625ZM63.1668 38.125C63.1668 38.9538 62.8024 39.7487 62.1538 40.3347C61.5053 40.9208 60.6256 41.25 59.7084 41.25H11.2917C10.3745 41.25 9.4949 40.9208 8.84634 40.3347C8.19777 39.7487 7.83342 38.9538 7.83342 38.125V19.375H63.1668V38.125ZM63.1668 13.125H7.83342V10C7.83342 9.1712 8.19777 8.37634 8.84634 7.79029C9.4949 7.20424 10.3745 6.875 11.2917 6.875H59.7084C60.6256 6.875 61.5053 7.20424 62.1538 7.79029C62.8024 8.37634 63.1668 9.1712 63.1668 10V13.125Z" fill="black"/>
</svg>
