<svg width="15" height="15" viewBox="0 0 15 15" fill="none" xmlns="http://www.w3.org/2000/svg">
<path d="M14.375 2.30769H11.25V1.73077C11.25 1.27174 11.0525 0.831513 10.7008 0.506931C10.3492 0.182348 9.87228 0 9.375 0H5.625C5.12772 0 4.6508 0.182348 4.29917 0.506931C3.94754 0.831513 3.75 1.27174 3.75 1.73077V2.30769H0.625C0.45924 2.30769 0.300269 2.36848 0.183058 2.47667C0.0658481 2.58486 0 2.73161 0 2.88462C0 3.03762 0.0658481 3.18437 0.183058 3.29256C0.300269 3.40076 0.45924 3.46154 0.625 3.46154H1.25V13.8462C1.25 14.1522 1.3817 14.4457 1.61612 14.662C1.85054 14.8784 2.16848 15 2.5 15H12.5C12.8315 15 13.1495 14.8784 13.3839 14.662C13.6183 14.4457 13.75 14.1522 13.75 13.8462V3.46154H14.375C14.5408 3.46154 14.6997 3.40076 14.8169 3.29256C14.9342 3.18437 15 3.03762 15 2.88462C15 2.73161 14.9342 2.58486 14.8169 2.47667C14.6997 2.36848 14.5408 2.30769 14.375 2.30769ZM6.25 10.9615C6.25 11.1145 6.18415 11.2613 6.06694 11.3695C5.94973 11.4777 5.79076 11.5385 5.625 11.5385C5.45924 11.5385 5.30027 11.4777 5.18306 11.3695C5.06585 11.2613 5 11.1145 5 10.9615V6.34615C5 6.19314 5.06585 6.0464 5.18306 5.93821C5.30027 5.83001 5.45924 5.76923 5.625 5.76923C5.79076 5.76923 5.94973 5.83001 6.06694 5.93821C6.18415 6.0464 6.25 6.19314 6.25 6.34615V10.9615ZM10 10.9615C10 11.1145 9.93415 11.2613 9.81694 11.3695C9.69973 11.4777 9.54076 11.5385 9.375 11.5385C9.20924 11.5385 9.05027 11.4777 8.93306 11.3695C8.81585 11.2613 8.75 11.1145 8.75 10.9615V6.34615C8.75 6.19314 8.81585 6.0464 8.93306 5.93821C9.05027 5.83001 9.20924 5.76923 9.375 5.76923C9.54076 5.76923 9.69973 5.83001 9.81694 5.93821C9.93415 6.0464 10 6.19314 10 6.34615V10.9615ZM10 2.30769H5V1.73077C5 1.57776 5.06585 1.43102 5.18306 1.32282C5.30027 1.21463 5.45924 1.15385 5.625 1.15385H9.375C9.54076 1.15385 9.69973 1.21463 9.81694 1.32282C9.93415 1.43102 10 1.57776 10 1.73077V2.30769Z" fill="#101828"/>
</svg>
