<svg width="25" height="24" viewBox="0 0 25 24" fill="none" xmlns="http://www.w3.org/2000/svg">
<path d="M21.0542 2H3.0542C2.78898 2 2.53463 2.10536 2.34709 2.29289C2.15956 2.48043 2.0542 2.73478 2.0542 3V21C2.0542 21.2652 2.15956 21.5196 2.34709 21.7071C2.53463 21.8946 2.78898 22 3.0542 22H21.0542C21.3194 22 21.5738 21.8946 21.7613 21.7071C21.9488 21.5196 22.0542 21.2652 22.0542 21V3C22.0542 2.73478 21.9488 2.48043 21.7613 2.29289C21.5738 2.10536 21.3194 2 21.0542 2ZM11.0542 20H4.0542V13H11.0542V20ZM11.0542 11H4.0542V4H11.0542V11ZM20.0542 20H13.0542V13H20.0542V20ZM20.0542 11H13.0542V4H20.0542V11Z" fill="black"/>
</svg>
