<svg width="66" height="49" viewBox="0 0 66 49" fill="none" xmlns="http://www.w3.org/2000/svg">
<g filter="url(#filter0_dd_548_6008)">
<rect x="9.61426" y="5" width="46.6143" height="30.0304" rx="5.37857" fill="white"/>
<rect x="9.5022" y="4.88795" width="46.8384" height="30.2545" rx="5.49062" stroke="#D6DCE5" stroke-width="0.224107"/>
<path d="M36.2698 13.8489H29.4065V26.1824H36.2698V13.8489Z" fill="#FF5F00"/>
<path d="M29.8423 20.0156C29.8412 18.8278 30.1104 17.6553 30.6294 16.5869C31.1485 15.5185 31.9038 14.5822 32.8382 13.8489C31.6811 12.9394 30.2914 12.3737 28.828 12.2167C27.3647 12.0596 25.8866 12.3174 24.5628 12.9607C23.2391 13.6039 22.123 14.6066 21.3421 15.8542C20.5613 17.1018 20.1472 18.5438 20.1472 20.0156C20.1472 21.4874 20.5613 22.9295 21.3421 24.1771C22.123 25.4246 23.2391 26.4273 24.5628 27.0706C25.8866 27.7138 27.3647 27.9716 28.828 27.8146C30.2914 27.6575 31.6811 27.0919 32.8382 26.1824C31.9038 25.449 31.1485 24.5127 30.6295 23.4443C30.1104 22.3759 29.8413 21.2034 29.8423 20.0156Z" fill="#EB001B"/>
<path d="M45.5287 20.0156C45.5288 21.4874 45.1148 22.9295 44.334 24.177C43.5532 25.4246 42.4371 26.4273 41.1134 27.0706C39.7896 27.7138 38.3116 27.9716 36.8483 27.8146C35.3849 27.6575 33.9953 27.0919 32.8382 26.1824C33.7717 25.4483 34.5265 24.5118 35.0454 23.4436C35.5644 22.3754 35.834 21.2032 35.834 20.0156C35.834 18.828 35.5644 17.6559 35.0454 16.5877C34.5265 15.5194 33.7717 14.583 32.8382 13.8489C33.9953 12.9394 35.3849 12.3737 36.8483 12.2167C38.3116 12.0596 39.7896 12.3174 41.1134 12.9607C42.4371 13.6039 43.5532 14.6066 44.334 15.8542C45.1148 17.1018 45.5288 18.5439 45.5287 20.0156Z" fill="#F79E1B"/>
<path d="M44.7804 24.8761V24.6236H44.8822V24.5721H44.6229V24.6236H44.7248V24.8761H44.7804ZM45.2838 24.8761V24.5716H45.2044L45.1129 24.781L45.0215 24.5716H44.942V24.8761H44.9981V24.6464L45.0838 24.8444H45.142L45.2278 24.6459V24.8761H45.2838Z" fill="#F79E1B"/>
</g>
<defs>
<filter id="filter0_dd_548_6008" x="0.425851" y="0.294224" width="64.9911" height="48.4071" filterUnits="userSpaceOnUse" color-interpolation-filters="sRGB">
<feFlood flood-opacity="0" result="BackgroundImageFix"/>
<feColorMatrix in="SourceAlpha" type="matrix" values="0 0 0 0 0 0 0 0 0 0 0 0 0 0 0 0 0 0 127 0" result="hardAlpha"/>
<feOffset dy="0.448214"/>
<feGaussianBlur stdDeviation="2.24107"/>
<feColorMatrix type="matrix" values="0 0 0 0 0.717647 0 0 0 0 0.717647 0 0 0 0 0.717647 0 0 0 0.08 0"/>
<feBlend mode="normal" in2="BackgroundImageFix" result="effect1_dropShadow_548_6008"/>
<feColorMatrix in="SourceAlpha" type="matrix" values="0 0 0 0 0 0 0 0 0 0 0 0 0 0 0 0 0 0 127 0" result="hardAlpha"/>
<feOffset dy="4.48214"/>
<feGaussianBlur stdDeviation="4.48214"/>
<feColorMatrix type="matrix" values="0 0 0 0 0.717647 0 0 0 0 0.717647 0 0 0 0 0.717647 0 0 0 0.08 0"/>
<feBlend mode="normal" in2="effect1_dropShadow_548_6008" result="effect2_dropShadow_548_6008"/>
<feBlend mode="normal" in="SourceGraphic" in2="effect2_dropShadow_548_6008" result="shape"/>
</filter>
</defs>
</svg>
