<svg width="24" height="26" viewBox="0 0 24 26" fill="none" xmlns="http://www.w3.org/2000/svg">
<path d="M11.9995 11.0351C11.5895 11.0351 11.2495 10.6784 11.2495 10.2484V6.75544C11.2495 6.32538 11.5895 5.96875 11.9995 5.96875C12.4095 5.96875 12.7495 6.32538 12.7495 6.75544V10.2484C12.7495 10.6889 12.4095 11.0351 11.9995 11.0351Z" fill="black"/>
<path d="M12.0199 21.3457C9.43987 21.3457 6.86987 20.9157 4.41987 20.0556C3.50987 19.7409 2.81987 19.0591 2.51987 18.199C2.21987 17.3388 2.31987 16.3528 2.80987 15.4927L4.07987 13.269C4.35987 12.776 4.60987 11.853 4.60987 11.2761V9.07331C4.60987 4.78321 7.92987 1.30078 12.0199 1.30078C16.1099 1.30078 19.4299 4.78321 19.4299 9.07331V11.2761C19.4299 11.8425 19.6799 12.776 19.9599 13.269L21.2299 15.4927C21.6999 16.3109 21.7799 17.2864 21.4699 18.178C21.1599 19.0696 20.4799 19.7514 19.6199 20.0556C17.1699 20.9262 14.5999 21.3457 12.0199 21.3457ZM12.0199 2.88466C8.75987 2.88466 6.10987 5.66431 6.10987 9.0838V11.2865C6.10987 12.1362 5.78987 13.3634 5.36987 14.0872L4.09987 16.3214C3.83987 16.7724 3.77987 17.2549 3.92987 17.6745C4.07987 18.0941 4.41987 18.4087 4.89987 18.5766C9.49987 20.1814 14.5599 20.1814 19.1599 18.5766C19.5899 18.4297 19.9199 18.0941 20.0699 17.6535C20.2299 17.213 20.1799 16.7305 19.9499 16.3214L18.6799 14.0977C18.2599 13.3739 17.9399 12.1467 17.9399 11.297V9.09429C17.9299 5.66431 15.2799 2.88466 12.0199 2.88466Z" fill="black"/>
<path d="M11.9997 24.0189C10.9297 24.0189 9.87968 23.5573 9.11968 22.7602C8.35968 21.963 7.91968 20.8616 7.91968 19.7393H9.41968C9.41968 20.4525 9.69968 21.1448 10.1797 21.6483C10.6597 22.1518 11.3197 22.4455 11.9997 22.4455C13.4197 22.4455 14.5797 21.2287 14.5797 19.7393H16.0797C16.0797 22.0993 14.2497 24.0189 11.9997 24.0189Z" fill="black"/>
</svg>
