<svg width="66" height="49" viewBox="0 0 66 49" fill="none" xmlns="http://www.w3.org/2000/svg">
<g filter="url(#filter0_dd_548_6010)">
<rect x="9.22852" y="5" width="46.6143" height="30.0304" rx="5.37857" fill="white"/>
<rect x="9.11646" y="4.88795" width="46.8384" height="30.2545" rx="5.49062" stroke="#D6DCE5" stroke-width="0.224107"/>
<path fill-rule="evenodd" clip-rule="evenodd" d="M19.4256 15.6465H16.7381C16.5542 15.6465 16.3978 15.7801 16.3691 15.9616L15.2821 22.8523C15.2605 22.9883 15.3658 23.1109 15.5038 23.1109H16.7868C16.9707 23.1109 17.1271 22.9773 17.1558 22.7954L17.449 20.9369C17.4772 20.7549 17.634 20.6214 17.8176 20.6214H18.6683C20.4387 20.6214 21.4603 19.7648 21.7273 18.0674C21.8475 17.3248 21.7324 16.7413 21.3845 16.3325C21.0026 15.884 20.325 15.6465 19.4256 15.6465ZM19.7356 18.1632C19.5887 19.1275 18.8519 19.1275 18.1394 19.1275H17.7339L18.0184 17.3266C18.0353 17.2179 18.1296 17.1377 18.2396 17.1377H18.4255C18.9108 17.1377 19.3686 17.1377 19.6052 17.4143C19.7462 17.5794 19.7895 17.8245 19.7356 18.1632ZM27.4592 18.1323H26.1722C26.0625 18.1323 25.9678 18.2125 25.9509 18.3214L25.8939 18.6813L25.8039 18.5509C25.5253 18.1465 24.9041 18.0114 24.284 18.0114C22.8617 18.0114 21.6471 19.0884 21.4105 20.5992C21.2876 21.3528 21.4623 22.0734 21.8899 22.576C22.2821 23.038 22.8433 23.2305 23.5109 23.2305C24.6568 23.2305 25.2924 22.4938 25.2924 22.4938L25.2349 22.8514C25.2133 22.9882 25.3185 23.1107 25.4557 23.1107H26.615C26.7994 23.1107 26.9549 22.9771 26.984 22.7952L27.6796 18.3909C27.7016 18.2554 27.5966 18.1323 27.4592 18.1323ZM25.6652 20.6369C25.541 21.372 24.9574 21.8655 24.2132 21.8655C23.8395 21.8655 23.5407 21.7457 23.3491 21.5186C23.1588 21.2931 23.0865 20.972 23.147 20.6145C23.2631 19.8856 23.8564 19.3761 24.5893 19.3761C24.9547 19.3761 25.2518 19.4973 25.4475 19.7264C25.6435 19.9579 25.7214 20.2809 25.6652 20.6369ZM33.0201 18.1321H34.3134C34.4945 18.1321 34.6002 18.3352 34.4973 18.4838L30.1959 24.6919C30.1262 24.7925 30.0115 24.8523 29.8889 24.8523H28.5972C28.4153 24.8523 28.3091 24.6476 28.4144 24.4987L29.7538 22.6083L28.3293 18.4283C28.28 18.2831 28.3873 18.1321 28.5419 18.1321H29.8127C29.9778 18.1321 30.1235 18.2405 30.1711 18.3985L30.9271 20.9231L32.7109 18.296C32.7807 18.1934 32.8968 18.1321 33.0201 18.1321Z" fill="#253B80"/>
<path fill-rule="evenodd" clip-rule="evenodd" d="M47.0426 22.8517L48.1456 15.835C48.1625 15.7261 48.2569 15.6459 48.3665 15.6455H49.6082C49.7453 15.6455 49.8506 15.7684 49.829 15.9044L48.7413 22.7948C48.713 22.9766 48.5566 23.1103 48.3723 23.1103H47.2634C47.1263 23.1103 47.021 22.9877 47.0426 22.8517ZM38.5957 15.6459H35.9077C35.7242 15.6459 35.5678 15.7795 35.5391 15.961L34.4521 22.8517C34.4305 22.9877 34.5358 23.1103 34.6731 23.1103H36.0523C36.1805 23.1103 36.2901 23.0168 36.3101 22.8895L36.6186 20.9363C36.6469 20.7543 36.8037 20.6208 36.9872 20.6208H37.8375C39.6082 20.6208 40.6297 19.7642 40.8969 18.0668C41.0174 17.3242 40.9016 16.7407 40.5539 16.3319C40.1722 15.8833 39.4951 15.6459 38.5957 15.6459ZM38.9057 18.1626C38.7592 19.1269 38.0223 19.1269 37.3094 19.1269H36.9043L37.1892 17.326C37.2061 17.2173 37.2996 17.1371 37.41 17.1371H37.5958C38.0809 17.1371 38.5391 17.1371 38.7755 17.4136C38.9167 17.5788 38.9596 17.8239 38.9057 18.1626ZM46.6285 18.1317H45.3425C45.2319 18.1317 45.1381 18.2119 45.1215 18.3208L45.0646 18.6807L44.9742 18.5503C44.6956 18.1459 44.0748 18.0108 43.4546 18.0108C42.0324 18.0108 40.8181 19.0878 40.5815 20.5986C40.459 21.3521 40.633 22.0728 41.0605 22.5753C41.4535 23.0374 42.014 23.2299 42.6816 23.2299C43.8274 23.2299 44.4628 22.4931 44.4628 22.4931L44.4056 22.8508C44.3839 22.9876 44.4892 23.1101 44.6272 23.1101H45.786C45.9695 23.1101 46.1259 22.9765 46.1546 22.7946L46.8506 18.3903C46.8719 18.2548 46.7666 18.1317 46.6285 18.1317ZM44.8347 20.6363C44.7113 21.3714 44.127 21.8649 43.3826 21.8649C43.0096 21.8649 42.7103 21.7451 42.5185 21.518C42.3282 21.2925 42.2568 20.9714 42.3166 20.6139C42.4332 19.8849 43.0258 19.3754 43.7587 19.3754C44.1242 19.3754 44.4212 19.4967 44.6171 19.7258C44.8138 19.9573 44.8917 20.2802 44.8347 20.6363Z" fill="#179BD7"/>
</g>
<defs>
<filter id="filter0_dd_548_6010" x="0.0401087" y="0.294224" width="64.9911" height="48.4071" filterUnits="userSpaceOnUse" color-interpolation-filters="sRGB">
<feFlood flood-opacity="0" result="BackgroundImageFix"/>
<feColorMatrix in="SourceAlpha" type="matrix" values="0 0 0 0 0 0 0 0 0 0 0 0 0 0 0 0 0 0 127 0" result="hardAlpha"/>
<feOffset dy="0.448214"/>
<feGaussianBlur stdDeviation="2.24107"/>
<feColorMatrix type="matrix" values="0 0 0 0 0.717647 0 0 0 0 0.717647 0 0 0 0 0.717647 0 0 0 0.08 0"/>
<feBlend mode="normal" in2="BackgroundImageFix" result="effect1_dropShadow_548_6010"/>
<feColorMatrix in="SourceAlpha" type="matrix" values="0 0 0 0 0 0 0 0 0 0 0 0 0 0 0 0 0 0 127 0" result="hardAlpha"/>
<feOffset dy="4.48214"/>
<feGaussianBlur stdDeviation="4.48214"/>
<feColorMatrix type="matrix" values="0 0 0 0 0.717647 0 0 0 0 0.717647 0 0 0 0 0.717647 0 0 0 0.08 0"/>
<feBlend mode="normal" in2="effect1_dropShadow_548_6010" result="effect2_dropShadow_548_6010"/>
<feBlend mode="normal" in="SourceGraphic" in2="effect2_dropShadow_548_6010" result="shape"/>
</filter>
</defs>
</svg>
