<svg width="18" height="16" viewBox="0 0 18 16" fill="none" xmlns="http://www.w3.org/2000/svg">
<path fill-rule="evenodd" clip-rule="evenodd" d="M11.5234 9.33214L17.1382 14.5389L15.6782 15.8928L10.0634 10.6861C9.01494 11.3858 7.75089 11.8128 6.36925 11.8128C2.85147 11.8128 0 9.16858 0 5.90642C0 2.64426 2.85147 0 6.36925 0C9.88704 0 12.7385 2.64426 12.7385 5.90642C12.7385 7.18766 12.278 8.35986 11.5234 9.33214ZM6.36925 1.81736C3.92934 1.81736 1.95977 3.64381 1.95977 5.90642C1.95977 8.16903 3.92934 9.99548 6.36925 9.99548C8.80917 9.99548 10.7787 8.16903 10.7787 5.90642C10.7787 3.64381 8.80917 1.81736 6.36925 1.81736Z" fill="black"/>
</svg>
