<svg width="66" height="49" viewBox="0 0 66 49" fill="none" xmlns="http://www.w3.org/2000/svg">
<g filter="url(#filter0_dd_548_6006)">
<rect x="10" y="5" width="46.6143" height="30.0304" rx="5.37857" fill="white"/>
<rect x="9.88795" y="4.88795" width="46.8384" height="30.2545" rx="5.49062" stroke="#D6DCE5" stroke-width="0.224107"/>
<path d="M33.0222 15.1215L30.848 25.285H28.2189L30.3935 15.1215H33.0222ZM44.0839 21.6841L45.4681 17.8674L46.2646 21.6841H44.0839ZM47.0173 25.285H49.4492L47.3271 15.1215H45.0824C44.578 15.1215 44.1524 15.4149 43.963 15.8671L40.0185 25.285H42.7795L43.3276 23.7673H46.7008L47.0173 25.285ZM40.1555 21.9666C40.1668 19.284 36.4459 19.1364 36.4716 17.9381C36.4794 17.573 36.8271 17.1857 37.5866 17.0863C37.9639 17.0371 39.0013 16.9995 40.1793 17.5415L40.6406 15.3862C40.0079 15.1565 39.1937 14.9355 38.1811 14.9355C35.5825 14.9355 33.7534 16.3172 33.738 18.2955C33.7216 19.7585 35.0437 20.575 36.0399 21.0613C37.0642 21.5596 37.4084 21.8787 37.4039 22.3243C37.3971 23.0066 36.5868 23.307 35.8308 23.3189C34.5087 23.3398 33.7415 22.9622 33.13 22.6772L32.6536 24.9042C33.2677 25.1863 34.4016 25.4314 35.578 25.4439C38.3396 25.4439 40.1465 24.0794 40.1555 21.9666ZM29.2653 15.1215L25.0056 25.285H22.226L20.1299 17.1738C20.0025 16.6742 19.8918 16.4915 19.5049 16.2808C18.8734 15.9382 17.8295 15.6162 16.9111 15.4168L16.9739 15.1215H21.4475C22.0175 15.1215 22.5306 15.5011 22.6599 16.1576L23.7671 22.0393L26.503 15.1215H29.2653Z" fill="#1434CB"/>
</g>
<defs>
<filter id="filter0_dd_548_6006" x="0.811593" y="0.294224" width="64.9911" height="48.4071" filterUnits="userSpaceOnUse" color-interpolation-filters="sRGB">
<feFlood flood-opacity="0" result="BackgroundImageFix"/>
<feColorMatrix in="SourceAlpha" type="matrix" values="0 0 0 0 0 0 0 0 0 0 0 0 0 0 0 0 0 0 127 0" result="hardAlpha"/>
<feOffset dy="0.448214"/>
<feGaussianBlur stdDeviation="2.24107"/>
<feColorMatrix type="matrix" values="0 0 0 0 0.717647 0 0 0 0 0.717647 0 0 0 0 0.717647 0 0 0 0.08 0"/>
<feBlend mode="normal" in2="BackgroundImageFix" result="effect1_dropShadow_548_6006"/>
<feColorMatrix in="SourceAlpha" type="matrix" values="0 0 0 0 0 0 0 0 0 0 0 0 0 0 0 0 0 0 127 0" result="hardAlpha"/>
<feOffset dy="4.48214"/>
<feGaussianBlur stdDeviation="4.48214"/>
<feColorMatrix type="matrix" values="0 0 0 0 0.717647 0 0 0 0 0.717647 0 0 0 0 0.717647 0 0 0 0.08 0"/>
<feBlend mode="normal" in2="effect1_dropShadow_548_6006" result="effect2_dropShadow_548_6006"/>
<feBlend mode="normal" in="SourceGraphic" in2="effect2_dropShadow_548_6006" result="shape"/>
</filter>
</defs>
</svg>
